<svg xmlns="http://www.w3.org/2000/svg" width="166.5" height="36.972">
  <path
    d="M109.25.167H97.745l-1.661 2.45h7.547l-7.557 8.906h12.942v-2.45h-7.321zm-70.937 2.45h8.549l1.66-2.45H35.396v11.366h2.928V7.976h8.097v-2.47h-8.097v-2.89Zm82.61 4.31 2.33-4.614 2.319 4.615zm6.959 4.596h3.242L125.228.157h-3.96l-5.886 11.366h3.223l1.219-2.42h6.819l1.219 2.42zM60.845 9.24c-1.513 0-2.594-.274-3.252-.813-.659-.549-.983-1.411-.983-2.587 0-1.176.334-2.038.983-2.577.658-.539 1.739-.804 3.252-.804 1.513 0 2.594.275 3.253.814.658.548.982 1.391.982 2.567 0 1.176-.334 2.048-1.002 2.587-.648.549-1.73.813-3.233.813zm0 2.45c2.457 0 4.265-.5 5.424-1.48 1.16-.99 1.75-2.45 1.75-4.38 0-1.93-.58-3.37-1.75-4.35C65.11.49 63.302 0 60.845 0c-2.456 0-4.274.49-5.434 1.47-1.16.98-1.74 2.43-1.74 4.36 0 1.93.58 3.4 1.74 4.39 1.16.98 2.968 1.48 5.434 1.48zm28.585-.157h-4.009l-6.76-5.487h4.824c1.003 0 2.172-.137 2.172-1.627v-.166c0-1.49-1.18-1.627-2.172-1.627H78.21v8.917H75.28V.166h9.02c2.379 0 4.305 1.588 4.305 3.96 0 2.165-1.612 3.683-3.695 3.928l4.51 3.47zM94.61 26.586h-4.373c-1.18 0-2.143-.95-2.143-2.137 0-1.185.954-2.136 2.143-2.136h8.735v-2.969h-8.726c-2.82 0-5.12 2.283-5.12 5.105a5.11 5.11 0 0 0 5.12 5.106h4.373c1.18 0 2.142.95 2.142 2.136a2.132 2.132 0 0 1-2.142 2.136h-9.63l2.005 2.969h7.615c2.82 0 5.12-2.283 5.12-5.105a5.105 5.105 0 0 0-5.13-5.105zM0 32.436v4.35h2.958zm0-2.656 4.746 7.006h1.798L0 27.124Zm0-5.301 8.333 12.307 5.355-7.907v7.907h2.978V19.178L8.333 31.485 0 19.168Zm151.456-5.125 2.004 2.97h4.029v14.472h2.978V22.313h4.029l2.004-2.969h-15.044zm-40.318 8.594h-5.847v-5.625h5.847a2.81 2.81 0 0 1 2.82 2.812 2.802 2.802 0 0 1-2.82 2.803zm0-8.594h-8.815v17.432h2.978v-5.889h5.847c3.203 0 5.797-2.587 5.797-5.781 0-3.195-2.604-5.762-5.797-5.762zm-74.554 0 2.005 2.97h4.029v14.472h2.977V22.313h4.029l2.004-2.969H36.584zm35.454 8.594H70.24l5.984 8.838h1.798zm5.581 0h-3.793l5.985 8.838h3.577l-4.147-6.114c2.397-.706 4.156-2.92 4.156-5.546 0-3.195-2.604-5.782-5.797-5.782h-9.61l2.004 2.97h7.596a2.81 2.81 0 0 1 2.82 2.812 2.81 2.81 0 0 1-2.81 2.822zm62.124 0h-1.8l5.986 8.838h1.798zm5.57 0h-3.802l5.985 8.838h3.577l-4.147-6.114c2.397-.706 4.156-2.92 4.156-5.546 0-3.195-2.594-5.782-5.797-5.782h-9.61l2.004 2.97h7.596a2.81 2.81 0 0 1 2.82 2.812 2.783 2.783 0 0 1-2.8 2.822zm-18.011-5.782c-3.282 0-5.935 2.656-5.935 5.909 0 3.253 2.663 5.909 5.935 5.909 3.273 0 5.936-2.656 5.936-5.909 0-3.253-2.644-5.909-5.936-5.909zm8.923 5.909c0 4.919-3.99 8.897-8.923 8.897s-8.922-3.978-8.922-8.897c0-4.919 3.989-8.897 8.922-8.897 4.933 0 8.923 3.998 8.923 8.897zm-76.637-5.909c-3.282 0-5.935 2.656-5.935 5.909 0 3.253 2.663 5.909 5.935 5.909s5.935-2.656 5.935-5.909c0-3.253-2.643-5.909-5.935-5.909zm8.922 5.909c0 4.919-3.99 8.897-8.922 8.897-4.933 0-8.923-3.978-8.923-8.897 0-4.919 3.99-8.897 8.923-8.897s8.922 3.998 8.922 8.897zm-39.993-5.909c-3.283 0-5.936 2.656-5.936 5.909 0 3.253 2.663 5.909 5.936 5.909 3.272 0 5.935-2.656 5.935-5.909 0-3.253-2.663-5.909-5.935-5.909zm8.912 5.909c0 4.919-3.99 8.897-8.922 8.897-4.933 0-8.923-3.978-8.923-8.897 0-4.919 3.99-8.897 8.923-8.897s8.922 3.998 8.922 8.897z" />
</svg>
