<svg width="168" height="84" viewBox="0 0 168 84" xmlns="http://www.w3.org/2000/svg">
  <path
    d="M59.8968 36.5983L41.2461 38.8814L54.8165 18.8234L70.1261 21.4788L59.8869 36.5983H59.8968ZM62.4713 7.51563L59.8673 11.3665H111.899C117.588 11.3665 122.894 8.55429 126.088 3.8509L128.692 0H76.6509C70.9614 0 65.6551 2.81224 62.4713 7.51563ZM91.2531 13.8652L81.4856 28.2889L92.3438 26.9563L101.207 13.8554H91.2433L91.2531 13.8652ZM104.244 13.8652L95.6455 26.5644L102.642 25.7021C105.099 25.3983 107.31 24.0461 108.695 22.0079L114.208 13.8554H104.244V13.8652ZM44.5871 13.8652L44.2039 14.4335L74.381 19.666L67.3747 30.0233L78.2035 28.7005L88.2364 13.875H44.5871V13.8652Z" />
  <path
    d="M109.993 46.4556H98.4858L96.8251 48.9053H104.372L96.8153 57.8124H109.757V55.3627H102.436L109.993 46.4556ZM39.0552 48.9053H47.6042L49.2649 46.4556H36.1367V57.8222H39.065V54.2652H47.162V51.7959H39.065V48.9053H39.0552ZM121.666 53.2168L123.995 48.6016L126.314 53.2168H121.666ZM128.624 57.8124H131.866L125.97 46.4458H122.01L116.124 57.8124H119.347L120.566 55.3921H127.385L128.604 57.8124H128.624ZM61.5873 55.5293C60.074 55.5293 58.9931 55.2549 58.3348 54.716C57.6764 54.1672 57.3521 53.3049 57.3521 52.1291C57.3521 50.9533 57.6862 50.091 58.3348 49.552C58.9931 49.0131 60.074 48.7485 61.5873 48.7485C63.1006 48.7485 64.1815 49.0229 64.8399 49.5618C65.4983 50.1106 65.8225 50.9533 65.8225 52.1291C65.8225 53.3049 65.4884 54.177 64.8202 54.716C64.1717 55.2647 63.0908 55.5293 61.5873 55.5293ZM61.5873 57.9789C64.0439 57.9789 65.852 57.4792 67.0115 56.4993C68.1711 55.5097 68.7607 54.0496 68.7607 52.1193C68.7607 50.189 68.1809 48.7485 67.0115 47.7687C65.852 46.779 64.0439 46.2891 61.5873 46.2891C59.1307 46.2891 57.3128 46.779 56.1533 47.7589C54.9937 48.7387 54.414 50.189 54.414 52.1193C54.414 54.0496 54.9937 55.5195 56.1533 56.5091C57.3128 57.489 59.1209 57.9887 61.5873 57.9887V57.9789ZM90.1726 57.8222H86.1634L79.4027 52.3349H84.2275C85.2298 52.3349 86.3992 52.1977 86.3992 50.7083V50.5417C86.3992 49.0523 85.22 48.9151 84.2275 48.9151H78.9507V57.832H76.0224V46.4556H85.0431C87.4212 46.4556 89.3471 48.043 89.3471 50.4143C89.3471 52.5798 87.7356 54.0986 85.6524 54.3436L90.1627 57.8124L90.1726 57.8222Z" />
  <path
    d="M95.3516 72.8747H90.9788C89.7996 72.8747 88.8366 71.9242 88.8366 70.7385C88.8366 69.5529 89.7898 68.6024 90.9788 68.6024H99.7146V65.6334H90.9886C88.1684 65.6334 85.869 67.9165 85.869 70.7385C85.869 73.5606 88.1586 75.8437 90.9886 75.8437H95.3614C96.5406 75.8437 97.5036 76.7942 97.5036 77.9798C97.5036 79.1655 96.5504 80.1159 95.3614 80.1159H85.7315L87.7361 83.0849H95.3516C98.1718 83.0849 100.471 80.8018 100.471 77.9798C100.471 75.148 98.1816 72.8747 95.3418 72.8747H95.3516ZM0.742188 78.7245V83.0751H3.69996L0.742188 78.7245ZM0.742188 76.069L5.48838 83.0751H7.28663L0.742188 73.4136V76.069ZM0.742188 70.7679L9.07505 83.0751L14.4305 75.1676V83.0751H17.4079V65.4668L9.07505 77.774L0.742188 65.457V70.7679ZM152.198 65.6432L154.202 68.6122H158.231V83.0849H161.209V68.6024H165.238L167.242 65.6334H152.198V65.6432ZM111.88 74.2367H106.033V68.6122H111.88C113.442 68.6122 114.7 69.8665 114.7 71.4245C114.7 72.9825 113.442 74.2269 111.88 74.2269V74.2367ZM111.88 65.6432H103.065V83.0751H106.043V77.1861H111.89C115.093 77.1861 117.687 74.5992 117.687 71.4049C117.687 68.2105 115.083 65.6432 111.89 65.6432H111.88ZM37.3262 65.6432L39.3308 68.6122H43.3597V83.0849H46.3371V68.6024H50.3659L52.3706 65.6334H37.3262V65.6432ZM72.7802 74.2367H70.9819L76.9662 83.0751H78.7645L72.7802 74.2367ZM78.3616 74.2367H74.5686L80.5529 83.0751H84.1298L79.983 76.9607C82.3806 76.2552 84.1396 74.0407 84.1396 71.4147C84.1396 68.2203 81.5356 65.6334 78.342 65.6334H68.7317L70.7363 68.6024H78.3321C79.8945 68.6024 81.1523 69.8567 81.1523 71.4147C81.1523 72.9727 79.9044 74.2367 78.342 74.2367H78.3616ZM140.485 74.2367H138.686L144.671 83.0751H146.469L140.485 74.2367ZM146.056 74.2367H142.253L148.238 83.0751H151.815L147.668 76.9607C150.065 76.2552 151.824 74.0407 151.824 71.4147C151.824 68.2203 149.23 65.6334 146.027 65.6334H136.417L138.421 68.6024H146.017C147.579 68.6024 148.837 69.8567 148.837 71.4147C148.857 72.9825 147.599 74.2367 146.037 74.2367H146.056ZM128.044 68.4554C124.762 68.4554 122.109 71.1109 122.109 74.3641C122.109 77.6173 124.772 80.2727 128.044 80.2727C131.317 80.2727 133.98 77.6173 133.98 74.3641C133.98 71.1109 131.336 68.4554 128.044 68.4554ZM136.967 74.3641C136.967 79.283 132.977 83.2613 128.044 83.2613C123.111 83.2613 119.122 79.283 119.122 74.3641C119.122 69.4451 123.111 65.4668 128.044 65.4668C132.977 65.4668 136.967 69.4647 136.967 74.3641ZM60.33 68.4554C57.048 68.4554 54.3948 71.1109 54.3948 74.3641C54.3948 77.6173 57.0578 80.2727 60.33 80.2727C63.6022 80.2727 66.2652 77.6173 66.2652 74.3641C66.2652 71.1109 63.6219 68.4554 60.33 68.4554ZM69.2525 74.3641C69.2525 79.283 65.2629 83.2613 60.33 83.2613C55.3971 83.2613 51.4076 79.283 51.4076 74.3641C51.4076 69.4451 55.3971 65.4668 60.33 65.4668C65.2629 65.4668 69.2525 69.4647 69.2525 74.3641ZM29.2587 68.4554C25.9766 68.4554 23.3235 71.1109 23.3235 74.3641C23.3235 77.6173 25.9864 80.2727 29.2587 80.2727C32.5309 80.2727 35.1939 77.6173 35.1939 74.3641C35.1939 71.1109 32.5309 68.4554 29.2587 68.4554ZM38.1713 74.3641C38.1713 79.283 34.1817 83.2613 29.2488 83.2613C24.3159 83.2613 20.3264 79.283 20.3264 74.3641C20.3264 69.4451 24.3159 65.4668 29.2488 65.4668C34.1817 65.4668 38.1713 69.4647 38.1713 74.3641Z" />
</svg>
