<?xml version="1.0" encoding="UTF-8" standalone="no"?>
<svg id="Layer_1" viewBox="0 0 99.52 86" version="1.1" sodipodi:docname="horizon5.svg"
  inkscape:version="1.1.2 (0a00cf5339, 2022-02-04)" xmlns:inkscape="http://www.inkscape.org/namespaces/inkscape"
  xmlns:sodipodi="http://sodipodi.sourceforge.net/DTD/sodipodi-0.dtd" xmlns="http://www.w3.org/2000/svg"
  xmlns:svg="http://www.w3.org/2000/svg">
  <sodipodi:namedview id="namedview13" pagecolor="#afafaf" bordercolor="#666666" borderopacity="1.0"
    inkscape:pageshadow="2" inkscape:pageopacity="1" inkscape:pagecheckerboard="true" showgrid="true"
    inkscape:zoom="10.069767" inkscape:cx="49.80254" inkscape:cy="42.950346" inkscape:current-layer="Layer_1">
    <inkscape:grid type="xygrid" id="grid830" />
  </sodipodi:namedview>
  <path
    d="M90.6,83.7h-4.57l-1.96-10.39-.06,.07c-.13,1.73-.19,3.39-.46,5.06l-.79,5.26h-4.57l2.81-18h4.51l2.15,10.82,.06-.07c.03-2.07,.16-4.14,.4-6.2l.71-4.6,4.57,.07-2.81,17.97Zm-20.08,.28c-4.84,0-5.95-4.87-5.29-9.27,.66-4.4,3.33-9.26,8.19-9.26s5.96,4.93,5.3,9.26c-.66,4.33-3.33,9.27-8.19,9.27h0Zm-6.48-.27h-12.17l6.61-11.39c.54-.85,1.12-1.68,1.76-2.47-.92,.07-1.96,.13-3.01,.13h-2.08l.65-4.26h11.64l-7.13,12.26c-.33,.6-.65,1.13-.98,1.66,.85-.07,1.75-.2,2.69-.2h2.69l-.67,4.26Zm-17.66,0l2.81-17.99h4.78l-2.81,17.99h-4.78Zm-5.63,0l-1.5-7.46-.06,.07c-.13,.94-.19,1.79-.33,2.66l-.72,4.8h-4.77l2.81-17.97h4.57c4.12,0,6.93,1.27,6.21,6-.13,.99-.51,1.93-1.12,2.72-.61,.79-1.42,1.39-2.34,1.74l2.42,7.46h-5.17v-.02Zm-14.91,.26c-4.84,0-5.95-4.87-5.3-9.27,.65-4.4,3.34-9.26,8.19-9.26s6.01,4.93,5.3,9.26c-.71,4.33-3.33,9.27-8.19,9.27Zm-12.23-.3l1.11-7.2h-2.29l-1.11,7.27H6.54l2.81-18h4.78l-.98,6.46h2.29l.98-6.46v-.07h4.77l-2.81,18h-4.77ZM3.46,63.3L0,86H95.63l3.51-22.7H3.46Zm24.61,6.67c-1.83,0-2.42,3.57-2.61,4.73-.19,1.16-.71,4.79,1.11,4.79s2.42-3.57,2.61-4.73c.19-1.16,.66-4.8-1.11-4.8h0Zm44.61,0c-1.84,0-2.42,3.57-2.61,4.73-.19,1.16-.71,4.8,1.11,4.8s2.42-3.57,2.61-4.73c.19-1.16,.73-4.79-1.11-4.79h0Zm-32.38-.34l-.72,4.4h.33c1.25,0,2.09-1.07,2.29-2.27,.26-1.53-.58-2.2-1.9-2.13Z"
    id="path6" />
  <path
    d="M27.3,36.58l-18.72,2.28,13.63-20.05,15.37,2.65-10.27,15.12h0Zm2.58-29.06l-2.62,3.85h52.23c5.71,0,11.04-2.81,14.23-7.51l2.62-3.85H44.11c-5.71,0-11.04,2.81-14.23,7.51Zm28.9,6.35l-9.8,14.42,10.9-1.33,8.9-13.1h-10Zm13.03,0l-8.63,12.69,7.02-.86c2.47-.3,4.68-1.65,6.07-3.69l5.53-8.14h-9.99Zm-59.88,0l-.39,.57,30.28,5.23-7.03,10.36,10.87-1.32,10.07-14.83H11.93Z"
    id="path8" />
  <path
    d="M77.57,46.43h-11.55l-1.67,2.45h7.58l-7.58,8.91h12.99v-2.45h-7.35l7.58-8.91h0ZM6.38,48.88H14.96l1.67-2.45H3.43v11.36h2.94v-3.55H14.5v-2.47H6.38v-2.89Zm82.91,4.32l2.34-4.61,2.32,4.61h-4.66Zm6.98,4.59h3.25l-5.92-11.36h-3.97l-5.9,11.36h3.24l1.23-2.42h6.85l1.22,2.42Zm-67.28-2.29c-1.52,0-2.6-.27-3.26-.82-.66-.55-.99-1.41-.99-2.59s.33-2.04,.99-2.57c.66-.54,1.75-.8,3.26-.8s2.6,.27,3.26,.81c.66,.54,.99,1.4,.99,2.56s-.33,2.04-1,2.59c-.67,.55-1.75,.82-3.25,.82h0Zm0,2.45c2.46,0,4.28-.49,5.45-1.49,1.17-.99,1.75-2.45,1.75-4.37s-.58-3.36-1.75-4.35c-1.17-.98-2.98-1.48-5.45-1.48s-4.29,.49-5.45,1.47c-1.16,.98-1.74,2.43-1.74,4.36s.58,3.4,1.74,4.38c1.16,.98,2.98,1.48,5.45,1.48h0Zm28.69-.16h-4.02l-6.78-5.49h4.85c1,0,2.18-.14,2.18-1.63v-.17c0-1.49-1.19-1.63-2.18-1.63h-5.3v8.91h-2.94v-11.36h9.06c2.38,0,4.32,1.59,4.32,3.96,0,2.17-1.61,3.68-3.71,3.93l4.53,3.48h0Z"
    id="path10" />
</svg>
