<svg xmlns="http://www.w3.org/2000/svg" width="99.52" height="39.74">
  <path
    d="M90.6 37.44h-4.57l-1.96-10.39-.06.07c-.13 1.73-.19 3.39-.46 5.06l-.79 5.26h-4.57l2.81-18h4.51l2.15 10.82.06-.07c.03-2.07.16-4.14.4-6.2l.71-4.6 4.57.07-2.81 17.97zm-20.08.28c-4.84 0-5.95-4.87-5.29-9.27.66-4.4 3.33-9.26 8.19-9.26 4.86 0 5.96 4.93 5.3 9.26-.66 4.33-3.33 9.27-8.19 9.27zm-6.48-.27H51.87l6.61-11.39c.54-.85 1.12-1.68 1.76-2.47-.92.07-1.96.13-3.01.13h-2.08l.65-4.26h11.64l-7.13 12.26c-.33.6-.65 1.13-.98 1.66.85-.07 1.75-.2 2.69-.2h2.69l-.67 4.26zm-17.66 0 2.81-17.99h4.78l-2.81 17.99zm-5.63 0-1.5-7.46-.06.07c-.13.94-.19 1.79-.33 2.66l-.72 4.8h-4.77l2.81-17.97h4.57c4.12 0 6.93 1.27 6.21 6-.13.99-.51 1.93-1.12 2.72-.61.79-1.42 1.39-2.34 1.74l2.42 7.46h-5.17zm-14.91.26c-4.84 0-5.95-4.87-5.3-9.27.65-4.4 3.34-9.26 8.19-9.26s6.01 4.93 5.3 9.26-3.33 9.27-8.19 9.27zm-12.23-.3 1.11-7.2h-2.29l-1.11 7.27H6.54l2.81-18h4.78l-.98 6.46h2.29l.98-6.46v-.07h4.77l-2.81 18zM3.46 17.04 0 39.74h95.63l3.51-22.7zm24.61 6.67c-1.83 0-2.42 3.57-2.61 4.73-.19 1.16-.71 4.79 1.11 4.79s2.42-3.57 2.61-4.73c.19-1.16.66-4.8-1.11-4.8zm44.61 0c-1.84 0-2.42 3.57-2.61 4.73-.19 1.16-.71 4.8 1.11 4.8s2.42-3.57 2.61-4.73c.19-1.16.73-4.79-1.11-4.79zm-32.38-.34-.72 4.4h.33c1.25 0 2.09-1.07 2.29-2.27.26-1.53-.58-2.2-1.9-2.13zM77.57.17H66.02l-1.67 2.45h7.58l-7.58 8.91h12.99V9.08h-7.35ZM6.38 2.62h8.58L16.63.17H3.43v11.36h2.94V7.98h8.13V5.51H6.38Zm82.91 4.32 2.34-4.61 2.32 4.61zm6.98 4.59h3.25L93.6.17h-3.97l-5.9 11.36h3.24l1.23-2.42h6.85zM28.99 9.24c-1.52 0-2.6-.27-3.26-.82-.66-.55-.99-1.41-.99-2.59s.33-2.04.99-2.57c.66-.54 1.75-.8 3.26-.8 1.51 0 2.6.27 3.26.81.66.54.99 1.4.99 2.56 0 1.16-.33 2.04-1 2.59-.67.55-1.75.82-3.25.82zm0 2.45c2.46 0 4.28-.49 5.45-1.49 1.17-.99 1.75-2.45 1.75-4.37s-.58-3.36-1.75-4.35C33.27.5 31.46 0 28.99 0s-4.29.49-5.45 1.47c-1.16.98-1.74 2.43-1.74 4.36 0 1.93.58 3.4 1.74 4.38 1.16.98 2.98 1.48 5.45 1.48zm28.69-.16h-4.02l-6.78-5.49h4.85c1 0 2.18-.14 2.18-1.63v-.17c0-1.49-1.19-1.63-2.18-1.63h-5.3v8.91h-2.94V.16h9.06c2.38 0 4.32 1.59 4.32 3.96 0 2.17-1.61 3.68-3.71 3.93l4.53 3.48z" />
</svg>
